# xmcd
# Track frame offsets:
# 150
# 15777
# 32525
# 48718
# 65170
# 86404
# 103114
# 121891
# 141718
# 161218
# 179850
# 196151
# 203159
# 217844
# 235959
# 260234
# 264813
#
# Disc length: 3803 seconds
# Revision: 0
# Processed by: cddbd v1.4PL0 Copyright (c) Steve Scherf et al.
# Submitted via: VisiTrax 2.9.3.171 - For more info visit www.synapsa.com
#
DISCID=fb0ed911
DTITLE=Paisley, Brad - Mud On The Tires
DYEAR=2003
DGENRE=Country
TTITLE0=Mud On The Tires
TTITLE1=Celebrity
TTITLE2=Ain't Nothin' Like
TTITLE3=Little Moments
TTITLE4=That's Love
TTITLE5=Somebody Knows You Now
TTITLE6=Famous People
TTITLE7=Hold Me In Your Arms (And Let Me Fall)
TTITLE8=Whiskey Lullaby - (featuring Alison Krauss)
TTITLE9=Best Thing That I Had Goin', The
TTITLE10=Cigar Song, The
TTITLE11=Make A Mistake
TTITLE12=Make A Mistake With Me - (instrumental)
TTITLE13=Is It Raining At Your House
TTITLE14=Spaghetti Western Swing - (featuring Redd Volkaert, instrumental)
TTITLE15=Farther Along
TTITLE16=(untitled) - (hidden track)
EXTD=
EXTT0=
EXTT1=
EXTT2=
EXTT3=
EXTT4=
EXTT5=
EXTT6=
EXTT7=
EXTT8=
EXTT9=
EXTT10=
EXTT11=
EXTT12=
EXTT13=
EXTT14=
EXTT15=
EXTT16=
PLAYORDER=
